<svg id="Capa_1" data-name="Capa 1" xmlns="http://www.w3.org/2000/svg" viewBox="0 0 692.63 226.7"><defs><style>.cls-1{fill:#fff;}</style></defs><g id="horizontal"><path class="cls-1" d="M83.64,134.9V85.54h7.73V67.14h24.92a4.26,4.26,0,0,0,4.26-4.26V44.14a4.26,4.26,0,0,0-4.26-4.26H69A27.25,27.25,0,0,0,41.77,67.14H71.05v78.1Z"/><path class="cls-1" d="M108.43,185.42H88.1V89.25h20.33Zm29.15-40.18H107V128.4h30.59Zm-33.91,2.26V127.17h34.87V147.5Zm32.48-35.38h20.33v50.43H136.15Z"/><path class="cls-1" d="M237.33,112.21v9.72H224.14V162H212V121.93H198.83v-9.72Z"/><path class="cls-1" d="M280.52,145.12H253.07a8.28,8.28,0,0,0,2.38,5.64,7.25,7.25,0,0,0,5.14,2,6.37,6.37,0,0,0,6.31-3.83h12.91a17.75,17.75,0,0,1-3.58,7,18,18,0,0,1-6.49,4.89,20.87,20.87,0,0,1-8.72,1.77,21.19,21.19,0,0,1-10.36-2.48,17.66,17.66,0,0,1-7.09-7.09,24.19,24.19,0,0,1,0-21.56,17.44,17.44,0,0,1,7.05-7.09A21.44,21.44,0,0,1,261,121.86a21.13,21.13,0,0,1,10.21,2.41,17.31,17.31,0,0,1,7,6.88,20.85,20.85,0,0,1,2.52,10.42A31.37,31.37,0,0,1,280.52,145.12Zm-12.2-6.74a6.22,6.22,0,0,0-2.13-5,7.82,7.82,0,0,0-5.32-1.85,7.66,7.66,0,0,0-5.14,1.78,7.88,7.88,0,0,0-2.58,5Z"/><path class="cls-1" d="M287.22,131.43a17.55,17.55,0,0,1,7-7.09,21.06,21.06,0,0,1,10.32-2.48,19.61,19.61,0,0,1,12.44,3.9,18.4,18.4,0,0,1,6.56,11h-12.9a6.22,6.22,0,0,0-6.32-4.54A6.33,6.33,0,0,0,299,134.8q-2,2.59-2,7.41t2,7.41a6.33,6.33,0,0,0,5.31,2.59,6.22,6.22,0,0,0,6.32-4.54h12.9A18.62,18.62,0,0,1,317,158.59a19.42,19.42,0,0,1-12.41,4,21,21,0,0,1-10.32-2.48,17.49,17.49,0,0,1-7-7.09,24.32,24.32,0,0,1,0-21.56Z"/><path class="cls-1" d="M366.64,126.5q4.16,4.51,4.15,12.38V162H358.73V140.51a8.67,8.67,0,0,0-2.05-6.17,8.06,8.06,0,0,0-11.07,0,8.67,8.67,0,0,0-2.05,6.17V162H331.43V122.43h12.13v5.24a12.81,12.81,0,0,1,5-4.15,15.87,15.87,0,0,1,7-1.52C360.18,122,363.87,123.5,366.64,126.5Z"/><path class="cls-1" d="M388.2,160.08a18.2,18.2,0,0,1-7.31-7.09,21.22,21.22,0,0,1-2.66-10.78,21,21,0,0,1,2.7-10.74,18.25,18.25,0,0,1,7.37-7.13,23.45,23.45,0,0,1,21,0,18.34,18.34,0,0,1,7.38,7.13,21.07,21.07,0,0,1,2.69,10.74A20.77,20.77,0,0,1,416.63,153a18.43,18.43,0,0,1-7.44,7.13,22.23,22.23,0,0,1-10.53,2.48A21.75,21.75,0,0,1,388.2,160.08Zm16.38-10.57Q407,147,407,142.21t-2.37-7.3a8.05,8.05,0,0,0-11.74,0q-2.34,2.52-2.34,7.34t2.31,7.3a7.43,7.43,0,0,0,5.78,2.56A7.88,7.88,0,0,0,404.58,149.51Z"/><path class="cls-1" d="M470.35,112.21V162H458.22V141.5H439.36V162H427.23V112.21h12.13v19.51h18.86V112.21Z"/><path class="cls-1" d="M488,160.08a18.11,18.11,0,0,1-7.3-7.09,23,23,0,0,1,0-21.52,18.34,18.34,0,0,1,7.38-7.13,23.45,23.45,0,0,1,21,0,18.25,18.25,0,0,1,7.37,7.13,22.6,22.6,0,0,1,0,21.48,18.45,18.45,0,0,1-7.45,7.13,22.17,22.17,0,0,1-10.53,2.48A21.78,21.78,0,0,1,488,160.08Zm16.38-10.57q2.44-2.55,2.45-7.3t-2.38-7.3a8,8,0,0,0-11.73,0q-2.34,2.52-2.34,7.34c0,3.17.76,5.6,2.3,7.3a7.44,7.44,0,0,0,5.78,2.56A7.87,7.87,0,0,0,504.42,149.51Z"/><path class="cls-1" d="M549.45,123.56a12.53,12.53,0,0,1,4.86,4.47v-5.6h12.12v39.49a22.33,22.33,0,0,1-2.16,9.9,16.51,16.51,0,0,1-6.59,7.05,21.34,21.34,0,0,1-11,2.63q-8.79,0-14.25-4.15a15.68,15.68,0,0,1-6.24-11.24h12a5.78,5.78,0,0,0,2.69,3.58,9.88,9.88,0,0,0,5.25,1.31,8.23,8.23,0,0,0,6-2.16c1.49-1.45,2.24-3.75,2.24-6.92v-5.6a13.3,13.3,0,0,1-4.89,4.5,14.8,14.8,0,0,1-7.31,1.74,16.2,16.2,0,0,1-8.86-2.52,17.33,17.33,0,0,1-6.28-7.16,26.16,26.16,0,0,1,0-21.45,17.25,17.25,0,0,1,6.28-7.09,16.42,16.42,0,0,1,8.86-2.48A15.27,15.27,0,0,1,549.45,123.56Zm2.34,11.49a8.18,8.18,0,0,0-6.13-2.63,8.27,8.27,0,0,0-6.14,2.59,9.79,9.79,0,0,0-2.51,7.13,10,10,0,0,0,2.51,7.2,8.44,8.44,0,0,0,12.27,0,11.43,11.43,0,0,0,0-14.32Z"/><path class="cls-1" d="M576.54,131.43a17.23,17.23,0,0,1,6.27-7.09,16.45,16.45,0,0,1,8.87-2.48,15.3,15.3,0,0,1,7.34,1.7,12.53,12.53,0,0,1,4.86,4.47v-5.6H616V162H603.88v-5.6a13.11,13.11,0,0,1-4.93,4.47,15.3,15.3,0,0,1-7.34,1.7,16.09,16.09,0,0,1-8.8-2.52,17.31,17.31,0,0,1-6.27-7.16,26.05,26.05,0,0,1,0-21.45Zm24.82,3.62a8.52,8.52,0,0,0-12.27,0,9.79,9.79,0,0,0-2.52,7.13,10,10,0,0,0,2.52,7.2,8.44,8.44,0,0,0,12.27,0,11.43,11.43,0,0,0,0-14.32Z"/><path class="cls-1" d="M643.66,123.88a13.72,13.72,0,0,1,7.09-1.88v12.84h-3.34q-4.53,0-6.8,1.95c-1.52,1.3-2.27,3.58-2.27,6.84V162H626.21V122.43h12.13V129A16,16,0,0,1,643.66,123.88Z"/></g></svg>